<svg width="32" height="33" viewBox="0 0 32 33" fill="none" xmlns="http://www.w3.org/2000/svg">
<g id="32 / location">
<path id="Vector" d="M15.8571 16.9285C15.1507 16.9285 14.4602 16.719 13.8729 16.3266C13.2856 15.9342 12.8278 15.3764 12.5575 14.7238C12.2872 14.0712 12.2165 13.3531 12.3543 12.6603C12.4921 11.9675 12.8322 11.3312 13.3317 10.8317C13.8312 10.3322 14.4675 9.99207 15.1603 9.85427C15.8531 9.71647 16.5712 9.78719 17.2238 10.0575C17.8764 10.3278 18.4342 10.7856 18.8266 11.3729C19.219 11.9602 19.4285 12.6507 19.4285 13.3571C19.4274 14.3039 19.0507 15.2117 18.3812 15.8812C17.7117 16.5507 16.8039 16.9274 15.8571 16.9285ZM15.8571 11.2142C15.4333 11.2142 15.019 11.3399 14.6666 11.5754C14.3142 11.8108 14.0395 12.1455 13.8773 12.537C13.7151 12.9286 13.6727 13.3595 13.7554 13.7751C13.8381 14.1908 14.0422 14.5726 14.3418 14.8723C14.6415 15.172 15.0234 15.3761 15.439 15.4588C15.8547 15.5414 16.2856 15.499 16.6771 15.3368C17.0687 15.1746 17.4033 14.9 17.6388 14.5476C17.8743 14.1952 17.9999 13.7809 17.9999 13.3571C17.9994 12.7889 17.7734 12.2442 17.3717 11.8425C16.9699 11.4407 16.4252 11.2148 15.8571 11.2142Z" fill="#9DA8BE" stroke="#9DA8BE" stroke-width="0.25"/>
<path id="Vector_2" d="M15.8572 25.5L9.83144 18.3936C9.74771 18.2869 9.66485 18.1795 9.58287 18.0714C8.55357 16.7156 7.99751 15.0594 8.00001 13.3571C8.00001 11.2733 8.82781 9.2748 10.3013 7.8013C11.7748 6.3278 13.7733 5.5 15.8572 5.5C17.941 5.5 19.9395 6.3278 21.413 7.8013C22.8865 9.2748 23.7143 11.2733 23.7143 13.3571C23.7168 15.0587 23.161 16.714 22.1322 18.0693L22.1314 18.0714C22.1314 18.0714 21.9172 18.3529 21.885 18.3907L15.8572 25.5ZM10.7229 17.2107C10.7229 17.2107 10.89 17.4307 10.9279 17.4779L15.8572 23.2914L20.7929 17.47C20.8243 17.4307 20.9922 17.2086 20.9922 17.2086C21.833 16.1008 22.2874 14.7479 22.2857 13.3571C22.2857 11.6522 21.6084 10.017 20.4028 8.81146C19.1972 7.60587 17.5621 6.92857 15.8572 6.92857C14.1522 6.92857 12.5171 7.60587 11.3115 8.81146C10.1059 10.017 9.42858 11.6522 9.42858 13.3571C9.42708 14.7487 9.88128 16.1024 10.7229 17.2107Z" fill="#9DA8BE" stroke="#9DA8BE" stroke-width="0.5"/>
</g>
</svg>
